<svg width="96" height="96" viewBox="0 0 96 96" fill="none" xmlns="http://www.w3.org/2000/svg">
  <path d="M48 8C25.92 8 8 25.92 8 48C8 70.08 25.92 88 48 88C70.08 88 88 70.08 88 48C88 25.92 70.08 8 48 8ZM48 80C30.32 80 16 65.68 16 48C16 30.32 30.32 16 48 16C65.68 16 80 30.32 80 48C80 65.68 65.68 80 48 80Z" fill="#00A67E"/>
  <path d="M60 36H52V32C52 29.8 50.2 28 48 28C45.8 28 44 29.8 44 32V36H36C33.8 36 32 37.8 32 40V56C32 58.2 33.8 60 36 60H60C62.2 60 64 58.2 64 56V40C64 37.8 62.2 36 60 36ZM56 52H40V44H56V52Z" fill="#00A67E"/>
</svg>
